<svg xmlns="http://www.w3.org/2000/svg" width="900" height="1400" font-family="system-ui,-apple-system,sans-serif" viewBox="0 0 900 1400"><defs><style>.bg{fill:#09090b}.bg2{fill:#18181b}.bg3{fill:#27272a}.border{stroke:#3f3f46;stroke-width:1;fill:none}.text-primary{fill:#fafafa}.text-muted{fill:#a1a1aa}.text-muted2{fill:#71717a}.text-teal{fill:#2dd4bf}.text-purple{fill:#a78bfa}.f10{font-size:10px}.f11{font-size:11px}.f12{font-size:12px}.f13{font-size:13px}.f14{font-size:14px}.f15{font-size:15px}.f22{font-size:22px}.f28{font-size:28px}.bold{font-weight:600}.med{font-weight:500}.mono{font-family:&apos;Menlo&apos;,&apos;Monaco&apos;,&apos;Courier New&apos;,monospace}.upper{font-size:10px;letter-spacing:.08em}</style></defs><rect width="900" height="1400" class="bg"/><rect width="780" height="1" x="60" y="36" fill="#27272a" class="bg3"/><text x="60" y="28" class="text-primary f15 med">arpit sengar</text><text x="174" y="28" class="text-muted f15">/ arpy8</text><rect width="56" height="22" x="490" y="12" fill="#18181b" stroke="#52525b" stroke-width="1" class="bg2" rx="5"/><text x="518" y="27" class="text-primary f11" text-anchor="middle">home</text><rect width="64" height="22" x="552" y="12" class="border" rx="5"/><text x="584" y="27" class="text-muted f11" text-anchor="middle">projects</text><rect width="50" height="22" x="622" y="12" class="border" rx="5"/><text x="647" y="27" class="text-muted f11" text-anchor="middle">skills</text><rect width="60" height="22" x="678" y="12" class="border" rx="5"/><text x="708" y="27" class="text-muted f11" text-anchor="middle">timeline</text><rect width="60" height="22" x="744" y="12" class="border" rx="5"/><text x="774" y="27" class="text-muted f11" text-anchor="middle">contact</text><text x="60" y="100" class="text-primary f28 bold">Arpit Sengar</text><text x="60" y="124" class="text-muted f15">Developer · Builder · arpy8</text><text x="60" y="150" class="text-muted f13">I build things for the web. Focused on clean code, thoughtful UX,</text><text x="60" y="166" class="text-muted f13">and shipping products that matter.</text><rect width="110" height="20" x="60" y="180" fill="#022c22" stroke="#134e4a" stroke-width="1" rx="4"/><circle cx="75" cy="190" r="4" fill="#2dd4bf"/><text x="86" y="194" class="text-teal f11">available for work</text><rect width="88" height="20" x="178" y="180" fill="#18181b" stroke="#3f3f46" stroke-width="1" rx="4"/><text x="222" y="194" class="text-muted f11" text-anchor="middle">Bengaluru, IN</text><rect width="72" height="20" x="272" y="180" fill="#18181b" stroke="#3f3f46" stroke-width="1" rx="4"/><text x="308" y="194" class="text-teal f11" text-anchor="middle">arpy8.com</text><text x="60" y="228" class="text-muted2 upper" letter-spacing=".08em">AT A GLANCE</text><rect width="780" height="1" x="60" y="233" fill="#27272a"/><rect width="180" height="72" x="60" y="246" fill="#18181b" stroke="#3f3f46" stroke-width="1" rx="7"/><text x="78" y="274" class="text-primary f22 bold">arpy8</text><text x="78" y="294" class="text-muted2 f11">handle / alias</text><rect width="180" height="72" x="252" y="246" fill="#18181b" stroke="#3f3f46" stroke-width="1" rx="7"/><text x="270" y="274" class="text-primary f22 bold">∞</text><text x="270" y="294" class="text-muted2 f11">things in the pipeline</text><rect width="180" height="72" x="444" y="246" fill="#18181b" stroke="#3f3f46" stroke-width="1" rx="7"/><text x="462" y="274" class="text-teal f22 bold">open</text><text x="462" y="294" class="text-muted2 f11">to collaborate</text><rect width="204" height="72" x="636" y="246" fill="#18181b" stroke="#3f3f46" stroke-width="1" rx="7"/><text x="654" y="274" class="text-primary f22 bold">full-stack</text><text x="654" y="294" class="text-muted2 f11">primary focus</text><text x="60" y="358" class="text-muted2 upper">PROJECTS</text><rect width="780" height="1" x="60" y="363" fill="#27272a"/><rect width="780" height="90" x="60" y="376" fill="#18181b" stroke="#3f3f46" stroke-width="1" rx="7"/><text x="80" y="400" class="text-primary f14 med">streamlit-shadcn-ui</text><rect width="66" height="18" x="620" y="383" fill="#022c22" stroke="#134e4a" stroke-width="1" rx="4"/><text x="653" y="395" class="text-teal f10" text-anchor="middle">featured</text><text x="80" y="420" class="text-muted f12">A shadcn/ui component library port for Streamlit — bringing modern UI primitives to Python dashboards.</text><rect width="46" height="18" x="80" y="432" fill="#1e1b4b" stroke="#3b2f6e" stroke-width="1" rx="4"/><text x="103" y="444" class="text-purple f10" text-anchor="middle">Python</text><rect width="54" height="18" x="132" y="432" fill="#18181b" stroke="#3f3f46" stroke-width="1" rx="4"/><text x="159" y="444" class="text-muted f10" text-anchor="middle">Streamlit</text><rect width="68" height="18" x="192" y="432" fill="#1e1b4b" stroke="#3b2f6e" stroke-width="1" rx="4"/><text x="226" y="444" class="text-purple f10" text-anchor="middle">TypeScript</text><rect width="62" height="18" x="266" y="432" fill="#18181b" stroke="#3f3f46" stroke-width="1" rx="4"/><text x="297" y="444" class="text-muted f10" text-anchor="middle">shadcn/ui</text><text x="800" y="444" class="text-teal f11" text-anchor="end">github ↗</text><rect width="780" height="84" x="60" y="476" fill="#18181b" stroke="#3f3f46" stroke-width="1" rx="7"/><text x="80" y="500" class="text-primary f14 med">oree</text><rect width="56" height="18" x="645" y="482" fill="#18181b" stroke="#3f3f46" stroke-width="1" rx="4"/><text x="673" y="494" class="text-muted f10" text-anchor="middle">web app</text><text x="80" y="520" class="text-muted f12">A minimal, distraction-free writing and notes app with a clean interface.</text><rect width="48" height="18" x="80" y="530" fill="#1e1b4b" stroke="#3b2f6e" stroke-width="1" rx="4"/><text x="104" y="542" class="text-purple f10" text-anchor="middle">React</text><rect width="54" height="18" x="134" y="530" fill="#18181b" stroke="#3f3f46" stroke-width="1" rx="4"/><text x="161" y="542" class="text-muted f10" text-anchor="middle">Node.js</text><rect width="52" height="18" x="194" y="530" fill="#18181b" stroke="#3f3f46" stroke-width="1" rx="4"/><text x="220" y="542" class="text-muted f10" text-anchor="middle">Tailwind</text><text x="800" y="542" class="text-teal f11" text-anchor="end">github ↗</text><rect width="780" height="84" x="60" y="570" fill="#18181b" stroke="#3f3f46" stroke-width="1" rx="7"/><text x="80" y="594" class="text-primary f14 med">ml experiments</text><rect width="62" height="18" x="637" y="577" fill="#18181b" stroke="#3f3f46" stroke-width="1" rx="4"/><text x="668" y="589" class="text-muted f10" text-anchor="middle">research</text><text x="80" y="614" class="text-muted f12">Collection of ML notebooks — NLP, computer vision, and data exploration projects.</text><rect width="46" height="18" x="80" y="624" fill="#1e1b4b" stroke="#3b2f6e" stroke-width="1" rx="4"/><text x="103" y="636" class="text-purple f10" text-anchor="middle">Python</text><rect width="52" height="18" x="132" y="624" fill="#18181b" stroke="#3f3f46" stroke-width="1" rx="4"/><text x="158" y="636" class="text-muted f10" text-anchor="middle">PyTorch</text><rect width="72" height="18" x="190" y="624" fill="#18181b" stroke="#3f3f46" stroke-width="1" rx="4"/><text x="226" y="636" class="text-muted f10" text-anchor="middle">scikit-learn</text><rect width="50" height="18" x="268" y="624" fill="#18181b" stroke="#3f3f46" stroke-width="1" rx="4"/><text x="293" y="636" class="text-muted f10" text-anchor="middle">Jupyter</text><text x="800" y="636" class="text-teal f11" text-anchor="end">github ↗</text><text x="60" y="688" class="text-muted2 upper">SKILLS</text><rect width="780" height="1" x="60" y="693" fill="#27272a"/><rect width="370" height="170" x="60" y="706" fill="#18181b" stroke="#3f3f46" stroke-width="1" rx="7"/><text x="78" y="728" class="text-muted2 upper">LANGUAGES</text><text x="78" y="752" class="text-primary f12">Python</text><text x="400" y="752" class="text-muted2 mono f11" text-anchor="end">90%</text><rect width="294" height="3" x="78" y="756" fill="#27272a" rx="2"/><rect width="264" height="3" x="78" y="756" fill="#2dd4bf" rx="2"/><text x="78" y="784" class="text-primary f12">JavaScript / TypeScript</text><text x="400" y="784" class="text-muted2 mono f11" text-anchor="end">82%</text><rect width="294" height="3" x="78" y="788" fill="#27272a" rx="2"/><rect width="241" height="3" x="78" y="788" fill="#2dd4bf" rx="2"/><text x="78" y="816" class="text-primary f12">C / C++</text><text x="400" y="816" class="text-muted2 mono f11" text-anchor="end">65%</text><rect width="294" height="3" x="78" y="820" fill="#27272a" rx="2"/><rect width="191" height="3" x="78" y="820" fill="#2dd4bf" rx="2"/><text x="78" y="848" class="text-primary f12">SQL</text><text x="400" y="848" class="text-muted2 mono f11" text-anchor="end">75%</text><rect width="294" height="3" x="78" y="852" fill="#27272a" rx="2"/><rect width="220" height="3" x="78" y="852" fill="#a78bfa" rx="2"/><rect width="398" height="170" x="442" y="706" fill="#18181b" stroke="#3f3f46" stroke-width="1" rx="7"/><text x="460" y="728" class="text-muted2 upper">TOOLS &amp; FRAMEWORKS</text><rect width="48" height="18" x="460" y="736" fill="#1e1b4b" stroke="#3b2f6e" stroke-width="1" rx="4"/><text x="484" y="748" class="text-purple f10" text-anchor="middle">React</text><rect width="52" height="18" x="514" y="736" fill="#1e1b4b" stroke="#3b2f6e" stroke-width="1" rx="4"/><text x="540" y="748" class="text-purple f10" text-anchor="middle">Next.js</text><rect width="62" height="18" x="572" y="736" fill="#18181b" stroke="#3f3f46" stroke-width="1" rx="4"/><text x="603" y="748" class="text-muted f10" text-anchor="middle">Tailwind CSS</text><rect width="62" height="18" x="640" y="736" fill="#18181b" stroke="#3f3f46" stroke-width="1" rx="4"/><text x="671" y="748" class="text-muted f10" text-anchor="middle">shadcn/ui</text><rect width="52" height="18" x="460" y="762" fill="#18181b" stroke="#3f3f46" stroke-width="1" rx="4"/><text x="486" y="774" class="text-muted f10" text-anchor="middle">Node.js</text><rect width="50" height="18" x="518" y="762" fill="#18181b" stroke="#3f3f46" stroke-width="1" rx="4"/><text x="543" y="774" class="text-muted f10" text-anchor="middle">FastAPI</text><rect width="40" height="18" x="574" y="762" fill="#18181b" stroke="#3f3f46" stroke-width="1" rx="4"/><text x="594" y="774" class="text-muted f10" text-anchor="middle">Flask</text><rect width="62" height="18" x="620" y="762" fill="#18181b" stroke="#3f3f46" stroke-width="1" rx="4"/><text x="651" y="774" class="text-muted f10" text-anchor="middle">PostgreSQL</text><rect width="50" height="18" x="688" y="762" fill="#18181b" stroke="#3f3f46" stroke-width="1" rx="4"/><text x="713" y="774" class="text-muted f10" text-anchor="middle">MongoDB</text><text x="460" y="800" class="text-muted2 upper" style="font-size:9px">ML / AI</text><rect width="52" height="18" x="460" y="808" fill="#1e1b4b" stroke="#3b2f6e" stroke-width="1" rx="4"/><text x="486" y="820" class="text-purple f10" text-anchor="middle">PyTorch</text><rect width="64" height="18" x="518" y="808" fill="#1e1b4b" stroke="#3b2f6e" stroke-width="1" rx="4"/><text x="550" y="820" class="text-purple f10" text-anchor="middle">scikit-learn</text><rect width="68" height="18" x="588" y="808" fill="#1e1b4b" stroke="#3b2f6e" stroke-width="1" rx="4"/><text x="622" y="820" class="text-purple f10" text-anchor="middle">HuggingFace</text><rect width="64" height="18" x="662" y="808" fill="#1e1b4b" stroke="#3b2f6e" stroke-width="1" rx="4"/><text x="694" y="820" class="text-purple f10" text-anchor="middle">LangChain</text><text x="460" y="844" class="text-muted2 upper" style="font-size:9px">INFRA</text><rect width="28" height="18" x="460" y="852" fill="#18181b" stroke="#3f3f46" stroke-width="1" rx="4"/><text x="474" y="864" class="text-muted f10" text-anchor="middle">Git</text><rect width="44" height="18" x="494" y="852" fill="#18181b" stroke="#3f3f46" stroke-width="1" rx="4"/><text x="516" y="864" class="text-muted f10" text-anchor="middle">Docker</text><rect width="46" height="18" x="544" y="852" fill="#18181b" stroke="#3f3f46" stroke-width="1" rx="4"/><text x="567" y="864" class="text-muted f10" text-anchor="middle">Vercel</text><rect width="34" height="18" x="596" y="852" fill="#18181b" stroke="#3f3f46" stroke-width="1" rx="4"/><text x="613" y="864" class="text-muted f10" text-anchor="middle">AWS</text><rect width="94" height="18" x="636" y="852" fill="#18181b" stroke="#3f3f46" stroke-width="1" rx="4"/><text x="683" y="864" class="text-muted f10" text-anchor="middle">GitHub Actions</text><text x="60" y="912" class="text-muted2 upper">TIMELINE</text><rect width="780" height="1" x="60" y="917" fill="#27272a"/><rect width="1" height="290" x="83" y="935" fill="#3f3f46"/><circle cx="84" cy="948" r="7" fill="#18181b" stroke="#2dd4bf" stroke-width="1.5"/><circle cx="84" cy="948" r="3" fill="#2dd4bf"/><rect width="736" height="66" x="104" y="930" fill="#18181b" stroke="#3f3f46" stroke-width="1" rx="7"/><text x="122" y="952" class="text-primary f13 med">software engineer</text><text x="818" y="952" class="text-muted2 mono f11" text-anchor="end">2024 — present</text><text x="122" y="970" class="text-muted f12">Building production software, contributing to open source</text><rect width="52" height="16" x="122" y="980" fill="#022c22" stroke="#134e4a" stroke-width="1" rx="3"/><text x="148" y="991" class="text-teal f10" text-anchor="middle">current</text><circle cx="84" cy="1030" r="7" fill="#18181b" stroke="#3f3f46" stroke-width="1.5"/><rect width="736" height="60" x="104" y="1012" fill="#18181b" stroke="#3f3f46" stroke-width="1" rx="7"/><text x="122" y="1034" class="text-primary f13 med">open source contributor</text><text x="818" y="1034" class="text-muted2 mono f11" text-anchor="end">2023 — 2024</text><text x="122" y="1052" class="text-muted f12">Contributed to Python and JS ecosystem packages</text><rect width="46" height="16" x="122" y="1058" fill="#18181b" stroke="#3f3f46" stroke-width="1" rx="3"/><text x="145" y="1069" class="text-muted f10" text-anchor="middle">Python</text><rect width="64" height="16" x="174" y="1058" fill="#18181b" stroke="#3f3f46" stroke-width="1" rx="3"/><text x="206" y="1069" class="text-muted f10" text-anchor="middle">TypeScript</text><circle cx="84" cy="1108" r="7" fill="#18181b" stroke="#3f3f46" stroke-width="1.5"/><rect width="736" height="60" x="104" y="1090" fill="#18181b" stroke="#3f3f46" stroke-width="1" rx="7"/><text x="122" y="1112" class="text-primary f13 med">freelance developer</text><text x="818" y="1112" class="text-muted2 mono f11" text-anchor="end">2022 — 2023</text><text x="122" y="1130" class="text-muted f12">Client projects — web apps, dashboards, automation</text><rect width="48" height="16" x="122" y="1136" fill="#18181b" stroke="#3f3f46" stroke-width="1" rx="3"/><text x="146" y="1147" class="text-muted f10" text-anchor="middle">React</text><rect width="46" height="16" x="176" y="1136" fill="#18181b" stroke="#3f3f46" stroke-width="1" rx="3"/><text x="199" y="1147" class="text-muted f10" text-anchor="middle">Python</text><rect width="52" height="16" x="228" y="1136" fill="#18181b" stroke="#3f3f46" stroke-width="1" rx="3"/><text x="254" y="1147" class="text-muted f10" text-anchor="middle">Node.js</text><circle cx="84" cy="1186" r="7" fill="#18181b" stroke="#3f3f46" stroke-width="1.5"/><rect width="736" height="56" x="104" y="1168" fill="#18181b" stroke="#3f3f46" stroke-width="1" rx="7"/><text x="122" y="1190" class="text-primary f13 med">started coding</text><text x="818" y="1190" class="text-muted2 mono f11" text-anchor="end">2021</text><text x="122" y="1208" class="text-muted f12">First lines of Python, competitive programming, building small tools</text><rect width="46" height="16" x="122" y="1214" fill="#18181b" stroke="#3f3f46" stroke-width="1" rx="3"/><text x="145" y="1225" class="text-muted f10" text-anchor="middle">Python</text><rect width="36" height="16" x="174" y="1214" fill="#18181b" stroke="#3f3f46" stroke-width="1" rx="3"/><text x="192" y="1225" class="text-muted f10" text-anchor="middle">C++</text><text x="60" y="1266" class="text-muted2 upper">CONTACT</text><rect width="780" height="1" x="60" y="1271" fill="#27272a"/><rect width="370" height="88" x="60" y="1284" fill="#18181b" stroke="#3f3f46" stroke-width="1" rx="7"/><rect width="28" height="28" x="78" y="1296" fill="#27272a" stroke="#3f3f46" stroke-width="1" rx="5"/><text x="92" y="1315" class="text-muted2 f13" text-anchor="middle">⊕</text><text x="116" y="1307" class="text-muted2 f10">website</text><text x="116" y="1321" class="text-teal f12">arpy8.com</text><rect width="334" height="1" x="78" y="1330" fill="#27272a"/><rect width="28" height="28" x="78" y="1340" fill="#27272a" stroke="#3f3f46" stroke-width="1" rx="5"/><text x="92" y="1359" class="text-muted2 f12" text-anchor="middle">⌥</text><text x="116" y="1351" class="text-muted2 f10">github</text><text x="116" y="1365" class="text-teal f12">github.com/arpy8</text><rect width="398" height="88" x="442" y="1284" fill="#27272a" stroke="#3f3f46" stroke-dasharray="5 3" stroke-width="1" rx="7"/><text x="460" y="1308" class="text-primary f13 med">open to opportunities</text><text x="460" y="1326" class="text-muted f12">Interested in full-time roles, freelance projects,</text><text x="460" y="1340" class="text-muted f12">or interesting collabs. Let&apos;s build something.</text><rect width="54" height="16" x="460" y="1350" fill="#022c22" stroke="#134e4a" stroke-width="1" rx="3"/><text x="487" y="1361" class="text-teal f10" text-anchor="middle">full-time</text><rect width="54" height="16" x="520" y="1350" fill="#022c22" stroke="#134e4a" stroke-width="1" rx="3"/><text x="547" y="1361" class="text-teal f10" text-anchor="middle">freelance</text><rect width="72" height="16" x="580" y="1350" fill="#022c22" stroke="#134e4a" stroke-width="1" rx="3"/><text x="616" y="1361" class="text-teal f10" text-anchor="middle">open source</text><rect width="780" height="1" x="60" y="1390" fill="#27272a"/><text x="60" y="1406" class="text-muted2 f11">arpit sengar · arpy8 · arpy8.com</text><text x="840" y="1406" class="text-muted2 f11" text-anchor="end">2025</text></svg>