<svg xmlns="http://www.w3.org/2000/svg" viewBox="0 0 900 1400" width="900" height="1400" font-family="system-ui,-apple-system,sans-serif">
  <defs>
    <style>
      .bg { fill: #09090b; }
      .bg2 { fill: #18181b; }
      .bg3 { fill: #27272a; }
      .border { stroke: #3f3f46; stroke-width: 1; fill: none; }
      .border2 { stroke: #52525b; stroke-width: 1; fill: none; }
      .border-dashed { stroke: #3f3f46; stroke-width: 1; fill: none; stroke-dasharray: 5 3; }
      .text-primary { fill: #fafafa; }
      .text-muted { fill: #a1a1aa; }
      .text-muted2 { fill: #71717a; }
      .text-teal { fill: #2dd4bf; }
      .text-purple { fill: #a78bfa; }
      .f10 { font-size: 10px; }
      .f11 { font-size: 11px; }
      .f12 { font-size: 12px; }
      .f13 { font-size: 13px; }
      .f14 { font-size: 14px; }
      .f15 { font-size: 15px; }
      .f22 { font-size: 22px; }
      .f28 { font-size: 28px; }
      .bold { font-weight: 600; }
      .med { font-weight: 500; }
      .mono { font-family: 'Menlo','Monaco','Courier New',monospace; }
      .upper { font-size: 10px; letter-spacing: 0.08em; }
    </style>
  </defs>

  <!-- Background -->
  <rect width="900" height="1400" class="bg"/>

  <!-- ─── NAV ─── -->
  <rect x="60" y="36" width="780" height="1" class="bg3" fill="#27272a"/>
  <text x="60" y="28" class="text-primary f15 med">arpit sengar</text>
  <text x="174" y="28" class="text-muted f15"> / arpy8</text>
  <!-- nav pills -->
  <rect x="490" y="12" width="56" height="22" rx="5" class="bg2" stroke="#52525b" stroke-width="1" fill="#18181b"/>
  <text x="518" y="27" class="text-primary f11" text-anchor="middle">home</text>
  <rect x="552" y="12" width="64" height="22" rx="5" class="border"/>
  <text x="584" y="27" class="text-muted f11" text-anchor="middle">projects</text>
  <rect x="622" y="12" width="50" height="22" rx="5" class="border"/>
  <text x="647" y="27" class="text-muted f11" text-anchor="middle">skills</text>
  <rect x="678" y="12" width="60" height="22" rx="5" class="border"/>
  <text x="708" y="27" class="text-muted f11" text-anchor="middle">timeline</text>
  <rect x="744" y="12" width="60" height="22" rx="5" class="border"/>
  <text x="774" y="27" class="text-muted f11" text-anchor="middle">contact</text>

  <!-- ─── HERO ─── -->
  <text x="60" y="100" class="text-primary f28 bold">Arpit Sengar</text>
  <text x="60" y="124" class="text-muted f15">Developer · Builder · arpy8</text>
  <text x="60" y="150" class="text-muted f13">I build things for the web. Focused on clean code, thoughtful UX,</text>
  <text x="60" y="166" class="text-muted f13">and shipping products that matter.</text>

  <!-- badges row -->
  <rect x="60" y="180" width="110" height="20" rx="4" fill="#022c22" stroke="#134e4a" stroke-width="1"/>
  <circle cx="75" cy="190" r="4" fill="#2dd4bf"/>
  <text x="86" y="194" class="text-teal f11">available for work</text>

  <rect x="178" y="180" width="88" height="20" rx="4" fill="#18181b" stroke="#3f3f46" stroke-width="1"/>
  <text x="222" y="194" class="text-muted f11" text-anchor="middle">Bengaluru, IN</text>

  <rect x="272" y="180" width="72" height="20" rx="4" fill="#18181b" stroke="#3f3f46" stroke-width="1"/>
  <text x="308" y="194" class="text-teal f11" text-anchor="middle">arpy8.com</text>

  <!-- divider label -->
  <text x="60" y="228" class="text-muted2 upper" letter-spacing="0.08em">AT A GLANCE</text>
  <rect x="60" y="233" width="780" height="1" fill="#27272a"/>

  <!-- ─── STAT CARDS ─── -->
  <!-- card 1 -->
  <rect x="60" y="246" width="180" height="72" rx="7" fill="#18181b" stroke="#3f3f46" stroke-width="1"/>
  <text x="78" y="274" class="text-primary f22 bold">arpy8</text>
  <text x="78" y="294" class="text-muted2 f11">handle / alias</text>

  <!-- card 2 -->
  <rect x="252" y="246" width="180" height="72" rx="7" fill="#18181b" stroke="#3f3f46" stroke-width="1"/>
  <text x="270" y="274" class="text-primary f22 bold">∞</text>
  <text x="270" y="294" class="text-muted2 f11">things in the pipeline</text>

  <!-- card 3 -->
  <rect x="444" y="246" width="180" height="72" rx="7" fill="#18181b" stroke="#3f3f46" stroke-width="1"/>
  <text x="462" y="274" class="text-teal f22 bold">open</text>
  <text x="462" y="294" class="text-muted2 f11">to collaborate</text>

  <!-- card 4 -->
  <rect x="636" y="246" width="204" height="72" rx="7" fill="#18181b" stroke="#3f3f46" stroke-width="1"/>
  <text x="654" y="274" class="text-primary f22 bold">full-stack</text>
  <text x="654" y="294" class="text-muted2 f11">primary focus</text>

  <!-- ─── PROJECTS ─── -->
  <text x="60" y="358" class="text-muted2 upper">PROJECTS</text>
  <rect x="60" y="363" width="780" height="1" fill="#27272a"/>

  <!-- proj 1 -->
  <rect x="60" y="376" width="780" height="90" rx="7" fill="#18181b" stroke="#3f3f46" stroke-width="1"/>
  <text x="80" y="400" class="text-primary f14 med">streamlit-shadcn-ui</text>
  <rect x="620" y="383" width="66" height="18" rx="4" fill="#022c22" stroke="#134e4a" stroke-width="1"/>
  <text x="653" y="395" class="text-teal f10" text-anchor="middle">featured</text>
  <text x="80" y="420" class="text-muted f12">A shadcn/ui component library port for Streamlit — bringing modern UI primitives to Python dashboards.</text>
  <!-- tags -->
  <rect x="80" y="432" width="46" height="18" rx="4" fill="#1e1b4b" stroke="#3b2f6e" stroke-width="1"/>
  <text x="103" y="444" class="text-purple f10" text-anchor="middle">Python</text>
  <rect x="132" y="432" width="54" height="18" rx="4" fill="#18181b" stroke="#3f3f46" stroke-width="1"/>
  <text x="159" y="444" class="text-muted f10" text-anchor="middle">Streamlit</text>
  <rect x="192" y="432" width="68" height="18" rx="4" fill="#1e1b4b" stroke="#3b2f6e" stroke-width="1"/>
  <text x="226" y="444" class="text-purple f10" text-anchor="middle">TypeScript</text>
  <rect x="266" y="432" width="62" height="18" rx="4" fill="#18181b" stroke="#3f3f46" stroke-width="1"/>
  <text x="297" y="444" class="text-muted f10" text-anchor="middle">shadcn/ui</text>
  <text x="800" y="444" class="text-teal f11" text-anchor="end">github ↗</text>

  <!-- proj 2 -->
  <rect x="60" y="476" width="780" height="84" rx="7" fill="#18181b" stroke="#3f3f46" stroke-width="1"/>
  <text x="80" y="500" class="text-primary f14 med">oree</text>
  <rect x="645" y="482" width="56" height="18" rx="4" fill="#18181b" stroke="#3f3f46" stroke-width="1"/>
  <text x="673" y="494" class="text-muted f10" text-anchor="middle">web app</text>
  <text x="80" y="520" class="text-muted f12">A minimal, distraction-free writing and notes app with a clean interface.</text>
  <rect x="80" y="530" width="48" height="18" rx="4" fill="#1e1b4b" stroke="#3b2f6e" stroke-width="1"/>
  <text x="104" y="542" class="text-purple f10" text-anchor="middle">React</text>
  <rect x="134" y="530" width="54" height="18" rx="4" fill="#18181b" stroke="#3f3f46" stroke-width="1"/>
  <text x="161" y="542" class="text-muted f10" text-anchor="middle">Node.js</text>
  <rect x="194" y="530" width="52" height="18" rx="4" fill="#18181b" stroke="#3f3f46" stroke-width="1"/>
  <text x="220" y="542" class="text-muted f10" text-anchor="middle">Tailwind</text>
  <text x="800" y="542" class="text-teal f11" text-anchor="end">github ↗</text>

  <!-- proj 3 -->
  <rect x="60" y="570" width="780" height="84" rx="7" fill="#18181b" stroke="#3f3f46" stroke-width="1"/>
  <text x="80" y="594" class="text-primary f14 med">ml experiments</text>
  <rect x="637" y="577" width="62" height="18" rx="4" fill="#18181b" stroke="#3f3f46" stroke-width="1"/>
  <text x="668" y="589" class="text-muted f10" text-anchor="middle">research</text>
  <text x="80" y="614" class="text-muted f12">Collection of ML notebooks — NLP, computer vision, and data exploration projects.</text>
  <rect x="80" y="624" width="46" height="18" rx="4" fill="#1e1b4b" stroke="#3b2f6e" stroke-width="1"/>
  <text x="103" y="636" class="text-purple f10" text-anchor="middle">Python</text>
  <rect x="132" y="624" width="52" height="18" rx="4" fill="#18181b" stroke="#3f3f46" stroke-width="1"/>
  <text x="158" y="636" class="text-muted f10" text-anchor="middle">PyTorch</text>
  <rect x="190" y="624" width="72" height="18" rx="4" fill="#18181b" stroke="#3f3f46" stroke-width="1"/>
  <text x="226" y="636" class="text-muted f10" text-anchor="middle">scikit-learn</text>
  <rect x="268" y="624" width="50" height="18" rx="4" fill="#18181b" stroke="#3f3f46" stroke-width="1"/>
  <text x="293" y="636" class="text-muted f10" text-anchor="middle">Jupyter</text>
  <text x="800" y="636" class="text-teal f11" text-anchor="end">github ↗</text>

  <!-- ─── SKILLS ─── -->
  <text x="60" y="688" class="text-muted2 upper">SKILLS</text>
  <rect x="60" y="693" width="780" height="1" fill="#27272a"/>

  <!-- skills card left: languages with bars -->
  <rect x="60" y="706" width="370" height="170" rx="7" fill="#18181b" stroke="#3f3f46" stroke-width="1"/>
  <text x="78" y="728" class="text-muted2 upper">LANGUAGES</text>
  <!-- Python -->
  <text x="78" y="752" class="text-primary f12">Python</text>
  <text x="400" y="752" class="text-muted2 mono f11" text-anchor="end">90%</text>
  <rect x="78" y="756" width="294" height="3" rx="2" fill="#27272a"/>
  <rect x="78" y="756" width="264" height="3" rx="2" fill="#2dd4bf"/>
  <!-- JS/TS -->
  <text x="78" y="784" class="text-primary f12">JavaScript / TypeScript</text>
  <text x="400" y="784" class="text-muted2 mono f11" text-anchor="end">82%</text>
  <rect x="78" y="788" width="294" height="3" rx="2" fill="#27272a"/>
  <rect x="78" y="788" width="241" height="3" rx="2" fill="#2dd4bf"/>
  <!-- C/C++ -->
  <text x="78" y="816" class="text-primary f12">C / C++</text>
  <text x="400" y="816" class="text-muted2 mono f11" text-anchor="end">65%</text>
  <rect x="78" y="820" width="294" height="3" rx="2" fill="#27272a"/>
  <rect x="78" y="820" width="191" height="3" rx="2" fill="#2dd4bf"/>
  <!-- SQL -->
  <text x="78" y="848" class="text-primary f12">SQL</text>
  <text x="400" y="848" class="text-muted2 mono f11" text-anchor="end">75%</text>
  <rect x="78" y="852" width="294" height="3" rx="2" fill="#27272a"/>
  <rect x="78" y="852" width="220" height="3" rx="2" fill="#a78bfa"/>

  <!-- skills card right: tech tags -->
  <rect x="442" y="706" width="398" height="170" rx="7" fill="#18181b" stroke="#3f3f46" stroke-width="1"/>
  <text x="460" y="728" class="text-muted2 upper">TOOLS &amp; FRAMEWORKS</text>
  <!-- row 1 -->
  <rect x="460" y="736" width="48" height="18" rx="4" fill="#1e1b4b" stroke="#3b2f6e" stroke-width="1"/>
  <text x="484" y="748" class="text-purple f10" text-anchor="middle">React</text>
  <rect x="514" y="736" width="52" height="18" rx="4" fill="#1e1b4b" stroke="#3b2f6e" stroke-width="1"/>
  <text x="540" y="748" class="text-purple f10" text-anchor="middle">Next.js</text>
  <rect x="572" y="736" width="62" height="18" rx="4" fill="#18181b" stroke="#3f3f46" stroke-width="1"/>
  <text x="603" y="748" class="text-muted f10" text-anchor="middle">Tailwind CSS</text>
  <rect x="640" y="736" width="62" height="18" rx="4" fill="#18181b" stroke="#3f3f46" stroke-width="1"/>
  <text x="671" y="748" class="text-muted f10" text-anchor="middle">shadcn/ui</text>
  <!-- row 2 -->
  <rect x="460" y="762" width="52" height="18" rx="4" fill="#18181b" stroke="#3f3f46" stroke-width="1"/>
  <text x="486" y="774" class="text-muted f10" text-anchor="middle">Node.js</text>
  <rect x="518" y="762" width="50" height="18" rx="4" fill="#18181b" stroke="#3f3f46" stroke-width="1"/>
  <text x="543" y="774" class="text-muted f10" text-anchor="middle">FastAPI</text>
  <rect x="574" y="762" width="40" height="18" rx="4" fill="#18181b" stroke="#3f3f46" stroke-width="1"/>
  <text x="594" y="774" class="text-muted f10" text-anchor="middle">Flask</text>
  <rect x="620" y="762" width="62" height="18" rx="4" fill="#18181b" stroke="#3f3f46" stroke-width="1"/>
  <text x="651" y="774" class="text-muted f10" text-anchor="middle">PostgreSQL</text>
  <rect x="688" y="762" width="50" height="18" rx="4" fill="#18181b" stroke="#3f3f46" stroke-width="1"/>
  <text x="713" y="774" class="text-muted f10" text-anchor="middle">MongoDB</text>
  <!-- row 3: ml -->
  <text x="460" y="800" class="text-muted2 upper" style="font-size:9px">ML / AI</text>
  <rect x="460" y="808" width="52" height="18" rx="4" fill="#1e1b4b" stroke="#3b2f6e" stroke-width="1"/>
  <text x="486" y="820" class="text-purple f10" text-anchor="middle">PyTorch</text>
  <rect x="518" y="808" width="64" height="18" rx="4" fill="#1e1b4b" stroke="#3b2f6e" stroke-width="1"/>
  <text x="550" y="820" class="text-purple f10" text-anchor="middle">scikit-learn</text>
  <rect x="588" y="808" width="68" height="18" rx="4" fill="#1e1b4b" stroke="#3b2f6e" stroke-width="1"/>
  <text x="622" y="820" class="text-purple f10" text-anchor="middle">HuggingFace</text>
  <rect x="662" y="808" width="64" height="18" rx="4" fill="#1e1b4b" stroke="#3b2f6e" stroke-width="1"/>
  <text x="694" y="820" class="text-purple f10" text-anchor="middle">LangChain</text>
  <!-- row 4: devops -->
  <text x="460" y="844" class="text-muted2 upper" style="font-size:9px">INFRA</text>
  <rect x="460" y="852" width="28" height="18" rx="4" fill="#18181b" stroke="#3f3f46" stroke-width="1"/>
  <text x="474" y="864" class="text-muted f10" text-anchor="middle">Git</text>
  <rect x="494" y="852" width="44" height="18" rx="4" fill="#18181b" stroke="#3f3f46" stroke-width="1"/>
  <text x="516" y="864" class="text-muted f10" text-anchor="middle">Docker</text>
  <rect x="544" y="852" width="46" height="18" rx="4" fill="#18181b" stroke="#3f3f46" stroke-width="1"/>
  <text x="567" y="864" class="text-muted f10" text-anchor="middle">Vercel</text>
  <rect x="596" y="852" width="34" height="18" rx="4" fill="#18181b" stroke="#3f3f46" stroke-width="1"/>
  <text x="613" y="864" class="text-muted f10" text-anchor="middle">AWS</text>
  <rect x="636" y="852" width="94" height="18" rx="4" fill="#18181b" stroke="#3f3f46" stroke-width="1"/>
  <text x="683" y="864" class="text-muted f10" text-anchor="middle">GitHub Actions</text>

  <!-- ─── TIMELINE ─── -->
  <text x="60" y="912" class="text-muted2 upper">TIMELINE</text>
  <rect x="60" y="917" width="780" height="1" fill="#27272a"/>

  <!-- vertical line -->
  <rect x="83" y="935" width="1" height="290" fill="#3f3f46"/>

  <!-- tl item 1 -->
  <circle cx="84" cy="948" r="7" fill="#18181b" stroke="#2dd4bf" stroke-width="1.5"/>
  <circle cx="84" cy="948" r="3" fill="#2dd4bf"/>
  <rect x="104" y="930" width="736" height="66" rx="7" fill="#18181b" stroke="#3f3f46" stroke-width="1"/>
  <text x="122" y="952" class="text-primary f13 med">software engineer</text>
  <text x="818" y="952" class="text-muted2 mono f11" text-anchor="end">2024 — present</text>
  <text x="122" y="970" class="text-muted f12">Building production software, contributing to open source</text>
  <rect x="122" y="980" width="52" height="16" rx="3" fill="#022c22" stroke="#134e4a" stroke-width="1"/>
  <text x="148" y="991" class="text-teal f10" text-anchor="middle">current</text>

  <!-- tl item 2 -->
  <circle cx="84" cy="1030" r="7" fill="#18181b" stroke="#3f3f46" stroke-width="1.5"/>
  <rect x="104" y="1012" width="736" height="60" rx="7" fill="#18181b" stroke="#3f3f46" stroke-width="1"/>
  <text x="122" y="1034" class="text-primary f13 med">open source contributor</text>
  <text x="818" y="1034" class="text-muted2 mono f11" text-anchor="end">2023 — 2024</text>
  <text x="122" y="1052" class="text-muted f12">Contributed to Python and JS ecosystem packages</text>
  <rect x="122" y="1058" width="46" height="16" rx="3" fill="#18181b" stroke="#3f3f46" stroke-width="1"/>
  <text x="145" y="1069" class="text-muted f10" text-anchor="middle">Python</text>
  <rect x="174" y="1058" width="64" height="16" rx="3" fill="#18181b" stroke="#3f3f46" stroke-width="1"/>
  <text x="206" y="1069" class="text-muted f10" text-anchor="middle">TypeScript</text>

  <!-- tl item 3 -->
  <circle cx="84" cy="1108" r="7" fill="#18181b" stroke="#3f3f46" stroke-width="1.5"/>
  <rect x="104" y="1090" width="736" height="60" rx="7" fill="#18181b" stroke="#3f3f46" stroke-width="1"/>
  <text x="122" y="1112" class="text-primary f13 med">freelance developer</text>
  <text x="818" y="1112" class="text-muted2 mono f11" text-anchor="end">2022 — 2023</text>
  <text x="122" y="1130" class="text-muted f12">Client projects — web apps, dashboards, automation</text>
  <rect x="122" y="1136" width="48" height="16" rx="3" fill="#18181b" stroke="#3f3f46" stroke-width="1"/>
  <text x="146" y="1147" class="text-muted f10" text-anchor="middle">React</text>
  <rect x="176" y="1136" width="46" height="16" rx="3" fill="#18181b" stroke="#3f3f46" stroke-width="1"/>
  <text x="199" y="1147" class="text-muted f10" text-anchor="middle">Python</text>
  <rect x="228" y="1136" width="52" height="16" rx="3" fill="#18181b" stroke="#3f3f46" stroke-width="1"/>
  <text x="254" y="1147" class="text-muted f10" text-anchor="middle">Node.js</text>

  <!-- tl item 4 -->
  <circle cx="84" cy="1186" r="7" fill="#18181b" stroke="#3f3f46" stroke-width="1.5"/>
  <rect x="104" y="1168" width="736" height="56" rx="7" fill="#18181b" stroke="#3f3f46" stroke-width="1"/>
  <text x="122" y="1190" class="text-primary f13 med">started coding</text>
  <text x="818" y="1190" class="text-muted2 mono f11" text-anchor="end">2021</text>
  <text x="122" y="1208" class="text-muted f12">First lines of Python, competitive programming, building small tools</text>
  <rect x="122" y="1214" width="46" height="16" rx="3" fill="#18181b" stroke="#3f3f46" stroke-width="1"/>
  <text x="145" y="1225" class="text-muted f10" text-anchor="middle">Python</text>
  <rect x="174" y="1214" width="36" height="16" rx="3" fill="#18181b" stroke="#3f3f46" stroke-width="1"/>
  <text x="192" y="1225" class="text-muted f10" text-anchor="middle">C++</text>

  <!-- ─── CONTACT ─── -->
  <text x="60" y="1266" class="text-muted2 upper">CONTACT</text>
  <rect x="60" y="1271" width="780" height="1" fill="#27272a"/>

  <!-- contact card left -->
  <rect x="60" y="1284" width="370" height="88" rx="7" fill="#18181b" stroke="#3f3f46" stroke-width="1"/>
  <!-- website row -->
  <rect x="78" y="1296" width="28" height="28" rx="5" fill="#27272a" stroke="#3f3f46" stroke-width="1"/>
  <text x="92" y="1315" class="text-muted2 f13" text-anchor="middle">⊕</text>
  <text x="116" y="1307" class="text-muted2 f10">website</text>
  <text x="116" y="1321" class="text-teal f12">arpy8.com</text>
  <!-- divider -->
  <rect x="78" y="1330" width="334" height="1" fill="#27272a"/>
  <!-- github row -->
  <rect x="78" y="1340" width="28" height="28" rx="5" fill="#27272a" stroke="#3f3f46" stroke-width="1"/>
  <text x="92" y="1359" class="text-muted2 f12" text-anchor="middle">⌥</text>
  <text x="116" y="1351" class="text-muted2 f10">github</text>
  <text x="116" y="1365" class="text-teal f12">github.com/arpy8</text>

  <!-- contact card right: open to work -->
  <rect x="442" y="1284" width="398" height="88" rx="7" fill="#27272a" stroke="#3f3f46" stroke-width="1" stroke-dasharray="5 3"/>
  <text x="460" y="1308" class="text-primary f13 med">open to opportunities</text>
  <text x="460" y="1326" class="text-muted f12">Interested in full-time roles, freelance projects,</text>
  <text x="460" y="1340" class="text-muted f12">or interesting collabs. Let's build something.</text>
  <rect x="460" y="1350" width="54" height="16" rx="3" fill="#022c22" stroke="#134e4a" stroke-width="1"/>
  <text x="487" y="1361" class="text-teal f10" text-anchor="middle">full-time</text>
  <rect x="520" y="1350" width="54" height="16" rx="3" fill="#022c22" stroke="#134e4a" stroke-width="1"/>
  <text x="547" y="1361" class="text-teal f10" text-anchor="middle">freelance</text>
  <rect x="580" y="1350" width="72" height="16" rx="3" fill="#022c22" stroke="#134e4a" stroke-width="1"/>
  <text x="616" y="1361" class="text-teal f10" text-anchor="middle">open source</text>

  <!-- footer line -->
  <rect x="60" y="1390" width="780" height="1" fill="#27272a"/>
  <text x="60" y="1406" class="text-muted2 f11">arpit sengar · arpy8 · arpy8.com</text>
  <text x="840" y="1406" class="text-muted2 f11" text-anchor="end">2025</text>
</svg>
